<svg xmlns="http://www.w3.org/2000/svg" xml:space="preserve" width="2000" height="131" data-id="lg_wRsaFmK3t6XCq9cNYH" data-version="1"><g data-padding="20"><g transform="translate(10 2.34)scale(.96429)"><path fill="#001f3f" d="M775.427 104.32h-11.94V27.88h11.94Zm14.16-49.3h-38.75v-11.6h38.75Zm34.22 50.47q-8.94 0-15.95-4.11-7.02-4.12-11.08-11.26-4.06-7.13-4.06-16.29 0-9.17 4.06-16.3 4.06-7.14 11.08-11.25 7.01-4.12 15.95-4.12 8.81 0 15.83 4.12 7.02 4.11 11.08 11.25 4.06 7.13 4.06 16.3 0 9.16-4.06 16.29-4.06 7.14-11.08 11.26-7.02 4.11-15.83 4.11m0-10.9q5.45 0 9.74-2.73 4.29-2.72 6.73-7.42 2.43-4.7 2.32-10.61.11-6.04-2.32-10.73-2.44-4.7-6.73-7.37t-9.74-2.67q-5.46 0-9.81 2.73-4.35 2.72-6.78 7.42-2.44 4.7-2.32 10.62-.12 5.91 2.32 10.61 2.43 4.7 6.78 7.42 4.35 2.73 9.81 2.73m65.88 10.89q-8.35 0-14.9-4.11-6.56-4.12-10.38-11.26-3.83-7.13-3.83-16.29 0-9.17 3.77-16.3 3.77-7.14 10.26-11.25 6.5-4.12 14.74-4.12 4.52 0 8.75 1.45 4.24 1.45 7.6 3.94 3.37 2.5 5.28 5.45 1.91 2.96 1.91 5.98l-3.48.23V18.48h11.95v85.84h-11.95v-14.5h2.32q0 2.79-1.85 5.51-1.86 2.73-4.93 5.05-3.08 2.32-7.08 3.71t-8.18 1.39m1.63-10.32q5.45 0 9.63-2.78 4.17-2.79 6.55-7.6 2.38-4.82 2.38-10.96 0-6.15-2.38-10.97-2.38-4.81-6.55-7.59-4.18-2.79-9.63-2.79t-9.63 2.79q-4.18 2.78-6.55 7.59-2.38 4.82-2.38 10.97 0 6.14 2.38 10.96 2.37 4.81 6.55 7.6 4.18 2.78 9.63 2.78m70.41 10.33q-8.93 0-15.95-4.11-7.02-4.12-11.08-11.26-4.06-7.13-4.06-16.29 0-9.17 4.06-16.3 4.06-7.14 11.08-11.25 7.02-4.12 15.95-4.12 8.82 0 15.83 4.12 7.02 4.11 11.08 11.25 4.06 7.13 4.06 16.3 0 9.16-4.06 16.29-4.06 7.14-11.08 11.26-7.01 4.11-15.83 4.11m0-10.9q5.45 0 9.74-2.73 4.3-2.72 6.73-7.42 2.44-4.7 2.32-10.61.12-6.04-2.32-10.73-2.43-4.7-6.73-7.37-4.29-2.67-9.74-2.67t-9.8 2.73q-4.35 2.72-6.79 7.42-2.43 4.7-2.32 10.62-.11 5.91 2.32 10.61 2.44 4.7 6.79 7.42 4.35 2.73 9.8 2.73"/><rect width="251.4" height="131.08" x="500.467" y="-400.11" fill="none" rx="0" ry="0" transform="translate(246.2 400.07)"/><path fill="#194d80" fill-rule="evenodd" d="M1079.187 115.41c-.5-.5-.5-1.25-.5-1.75l2-11h-40.75l-2 11.75c-.25 1-1 1.75-2.25 1.75h-12.25c-1.5 0-2.5-1.25-2.25-2.75l2-11h-11.25c-1.5 0-2.5-1.25-2.25-2.75l2.25-12.25c.25-1 1-1.75 2.25-1.75h12l7-40h-11.25c-1.5 0-2.5-1.25-2.25-2.75l2.25-12.25c.25-1 1-1.75 2.25-1.75h12l2-11.75c.25-1 1-1.75 2.25-1.75h12.25c1.5 0 2.5 1.25 2.25 2.75l-2 11h40.75l2-11.75c.25-1 1-1.75 2.25-1.75h12.25c1.5 0 2.5 1.25 2.25 2.75l-2 11h11.25c1.5 0 2.5 1.25 2.25 2.75l-2.25 12.25c-.25 1-1 1.75-2.25 1.75h-12l-7 40h11.25c1.5 0 2.5 1.25 2.25 2.75l-2.25 12.25c-.25 1-1 1.75-2.25 1.75h-12l-2 11.75c-.25 1-1 1.75-2.25 1.75h-12.25m-31-70.5-7 40h40.75l7-40Z"/><path fill="#001f3f" d="M1176.567 94.06h-33.82v-3.12q0-3.72 2.05-6.8 2.06-3.08 5.25-5.74t6.84-5.13 6.84-4.82q3.19-2.36 5.24-4.9 2.05-2.55 2.05-5.44 0-4.41-2.92-6.91-2.93-2.51-8.4-2.51-5.02 0-8.17 2.24t-3.76 6.5h-5.7q.45-4.33 2.85-7.56 2.39-3.23 6.19-4.98t8.44-1.75q5.47 0 9.31 1.98 3.84 1.97 5.85 5.32 2.01 3.34 2.01 7.52 0 3.5-1.9 6.54t-4.94 5.7-6.42 5.01q-3.38 2.36-6.5 4.6-3.11 2.24-5.16 4.41-2.06 2.16-2.28 4.37h27.05Zm24.93.61q-8.89 0-13.26-6.58-4.37-6.57-4.37-19.19 0-12.61 4.37-19.19 4.37-6.57 13.26-6.57 5.17.08 8.59 2.24 3.42 2.17 5.39 5.82 1.98 3.64 2.82 8.2.83 4.56.83 9.5 0 12.62-4.37 19.19-4.37 6.58-13.26 6.58m0-5.55q3.88-.08 6.23-1.9 2.36-1.82 3.61-4.79 1.26-2.96 1.67-6.5.42-3.53.42-7.03 0-10.1-2.81-15.16-2.81-5.05-9.12-5.05-6.23 0-9.08 5.05-2.85 5.06-2.85 15.16 0 10.11 2.85 15.17 2.85 5.05 9.08 5.05m58.66 4.94h-33.82v-3.12q0-3.72 2.05-6.8 2.06-3.08 5.25-5.74t6.84-5.13 6.84-4.82q3.19-2.36 5.24-4.9 2.05-2.55 2.05-5.44 0-4.41-2.92-6.91-2.93-2.51-8.4-2.51-5.02 0-8.17 2.24t-3.76 6.5h-5.7q.45-4.33 2.85-7.56 2.39-3.23 6.19-4.98t8.44-1.75q5.47 0 9.31 1.98 3.84 1.97 5.85 5.32 2.01 3.34 2.01 7.52 0 3.5-1.9 6.54t-4.94 5.7-6.42 5.01q-3.38 2.36-6.5 4.6-3.11 2.24-5.16 4.41-2.06 2.16-2.28 4.37h27.05Zm36.11 0h-5.7V81.22h-24.01v-5.55l21.12-31.92h8.59v32.37h6.77v5.1h-6.77Zm-5.7-45.45-18.69 27.51h18.69Z"/><rect width="167.37" height="85.88" x="542.487" y="-377.51" fill="none" rx="0" ry="0" transform="translate(596.81 403.7)"/></g><path fill="transparent" stroke="transparent" d="M720 0h560v131H720z"/></g></svg>