<?xml version="1.0" encoding="utf-8"?>
<!-- Generator: Adobe Illustrator 27.5.0, SVG Export Plug-In . SVG Version: 6.00 Build 0)  -->
<svg version="1.1" xmlns="http://www.w3.org/2000/svg" xmlns:xlink="http://www.w3.org/1999/xlink" x="0px" y="0px"
	 viewBox="0 0 1100 800" style="enable-background:new 0 0 1100 800;" xml:space="preserve">
<g id="Background">
	<rect style="fill:#FFFFFF;" width="1100" height="800"/>
</g>
<g id="Shadow">
	<g>
		<path style="fill:#F1F2F2;" d="M503.964,626.118c-28.193,0.084-56.385,0.762-84.528,3.892c-10.611,1.18-21,3.776-31.635,4.823
			c-21.244,2.092-42.107,5.993-63.426,7.793c-17.168,1.449-34.408,2.305-51.526,4.143c-16.049,1.724-33.816,1.326-49.742-1.522
			c-11.79-2.109-23.633-3.296-35.225-6.682c-12.967-3.789-27.055-6.498-40.565-6.4c-19.266,0.139-38.028,0.155-56.466,6.845
			c-6.472,2.348-14.395,6.209-19.31,11.137c-11.251,11.282-12.774,39.432-1.54,51.133c18.921,19.693,59.305,27.42,85.827,27.785
			c29.063,0.4,57.296-1.758,86.402-3.026c27.045-1.179,54.023-2.856,81.113-2.797c55.328,0.121,110.664,0,165.893-3.696
			c51.888-3.472,103.907-2.28,155.909-2.28c53.326,0,106.291,0.419,159.233,7.506c23.067,3.088,46.568,4.169,69.75,6.332
			c20.762,1.938,40.714-0.038,61.394-1.829c17.365-1.504,34.616-5.964,50.391-13.503c12.487-5.968,34.749-24.507,38.579-38.752
			c10.736-39.935-151.3-38.975-176.179-38.885c-27.831,0.101-55.884,1.016-83.693-0.045c-11.698-0.446-23.224-2.733-34.641-5.238
			c-11.372-2.495-22.83-1.861-34.362-2.91c-48.092-4.374-96.291-3.734-144.536-3.734
			C535.379,626.209,519.671,626.071,503.964,626.118z"/>
	</g>
</g>
<g id="Object">
	<g>
		<g>
			<polygon style="fill:#9EA6AD;" points="139.543,465.578 136.037,546.896 146.315,685.165 161.694,686.258 180.379,560.677 
				206.227,454.411 			"/>
			<polygon style="fill:#1A3151;" points="161.145,692.736 143.923,699.87 136.198,690.964 145.105,683.239 161.735,684.421 			"/>
		</g>
		<g>
			<polygon style="fill:#9EA6AD;" points="248.41,436.803 251.785,498.269 241.771,681.035 226.372,681.804 203.294,561.934 
				182.938,430.481 			"/>
			<polygon style="fill:#1A3151;" points="226.785,688.293 243.853,695.787 251.763,687.045 243.021,679.135 226.369,679.967 			"/>
		</g>
		<g>
			<path style="fill:#145566;" d="M135.514,260.866l46.518-13.098c0,0,26.834-1.646,55.315,57.919
				c15.846,33.139,28.164,87.493,35.975,129.198c-0.109,6.156-2.184,33.393-30.422,33.614c-48.493,0.379-74.906-2.981-94.818,4.307
				c-16.866,6.772-19.467-17.588-20.658-36.313l-2.661-58.108L135.514,260.866z"/>
		</g>
		<g>
			<path style="fill:#AA6755;" d="M134.678,200.344c11.496-4.654,23.387-9.094,35.742-8.751c2.706,0.075,5.671,0.51,7.474,2.53
				c0.698,0.783,1.161,1.743,1.598,2.696c4.915,10.703,11.557,26.678,5.924,38.26c-1.074,2.208-2.7,4.093-4.516,5.706
				c-2.429,2.157-5.24,3.821-8.247,4.962c1.115,2.679,2.473,5.257,4.053,7.691c-2.035,4.585-14.705,7.238-17.732,3.686
				c-0.711-3.397-1.422-6.794-2.133-10.191c-1.659-0.364-3.288-0.873-4.853-1.562c-6.058-2.667-10.571-7.506-13.689-13.247
				c-3.395-6.251-7.658-12.018-10.879-18.43c-1.173-2.336-2.246-5.047-1.326-7.494c0.979-2.605,3.82-3.916,6.397-4.966
				C133.219,200.936,133.948,200.639,134.678,200.344z"/>
			<path style="fill:#1A3151;" d="M175.51,200.025c-6.545-2.796-15.676-2.931-21.158-1.589
				c-16.573,4.056-20.633,17.419-18.917,32.998c-5.617-5.092-15.543-11.013-17.347-18.484c-1.477-6.115-2.049-14.698,0.512-20.629
				c2.398-5.549,10.227-9.7,14.669-13.433c4.187-3.519,8.375-7.037,12.562-10.556c0.871-0.732,1.767-1.478,2.839-1.857
				c1.268-0.448,2.657-0.339,3.997-0.225c11.471,0.98,22.941,1.959,34.412,2.939c2.203,0.188,4.744,0.578,5.866,2.483
				c0.683,1.159,0.639,2.59,0.575,3.934c-0.282,5.916-1.69,12.153-1.304,18.032c-0.103,3.471,0.809,21.019-5.473,20.04
				c-2.229-2.559-3.086-6.031-4.963-8.857C180.394,202.731,178.165,201.159,175.51,200.025z"/>
		</g>
		<polygon style="fill:#145566;" points="182.032,247.769 200.445,250.133 275.743,306.304 283.288,327.738 261.262,383.395 
			249.873,366.289 256.5,326.792 233.494,315.807 195.644,258.778 		"/>
	</g>
	<g>
		<g>
			<g>
				<g>
					
						<rect x="240.049" y="159.722" transform="matrix(0.9962 -0.0875 0.0875 0.9962 -35.28 39.9956)" style="fill:#3ABABA;" width="397.415" height="525.724"/>
					
						<rect x="259.836" y="176.477" transform="matrix(0.9962 -0.0875 0.0875 0.9962 -35.0264 39.962)" style="fill:#FCFCFC;" width="357.33" height="486.395"/>
					<g>
						
							<rect x="340.018" y="174.824" transform="matrix(0.9962 -0.0875 0.0875 0.9962 -14.3218 37.2235)" style="opacity:0.12;" width="155.19" height="14.441"/>
						<g>
							<path style="fill:#E8EBED;" d="M458.766,127.331l-2.399,0.211l-0.141-1.603c-1.328-15.104-16.591-26.102-34.091-24.565
								l-23.05,2.024c-17.5,1.537-30.611,15.027-29.283,30.13l0.141,1.602l-2.399,0.211c-17.5,1.537-30.611,15.026-29.283,30.129
								l2.686,30.553l154.595-13.573l-2.685-30.553C491.529,136.793,476.267,125.795,458.766,127.331z M433.576,130.178
								l-40.731,3.576c-4.163,0.365-7.866-2.712-8.229-6.84c-0.363-4.127,2.746-7.803,6.91-8.169l40.73-3.576
								c4.164-0.366,7.867,2.712,8.229,6.84C440.849,126.136,437.74,129.811,433.576,130.178z"/>
						</g>
					</g>
				</g>
				<g style="opacity:0.47;">
					<path style="fill:#879195;" d="M352.576,364.207c-17.421,1.529-34.841,3.059-52.262,4.589
						c-1.471,0.129-2.613,1.475-2.485,2.937c1.518,17.269,3.036,34.538,4.554,51.807c0.128,1.459,1.484,2.589,2.959,2.459
						c17.42-1.53,34.841-3.059,52.262-4.589c0.798-0.07,1.381-0.412,1.777-0.883c0.03-0.029,0.056-0.063,0.085-0.094
						c0.015-0.02,0.032-0.038,0.046-0.058c0.405-0.47,0.647-1.103,0.577-1.903c-1.518-17.269-3.036-34.538-4.554-51.806
						C355.406,365.208,354.05,364.078,352.576,364.207z M354.407,416.253c-15.606,1.37-31.212,2.74-46.818,4.111
						c-1.36-15.47-2.719-30.94-4.079-46.41c15.606-1.37,31.211-2.741,46.818-4.111C351.688,385.313,353.047,400.783,354.407,416.253
						z"/>
					<path style="fill:#879195;" d="M360.996,459.995c-17.421,1.529-34.841,3.059-52.262,4.588
						c-1.471,0.129-2.613,1.475-2.485,2.937c1.518,17.269,3.036,34.538,4.554,51.806c0.128,1.459,1.484,2.589,2.959,2.459
						c17.421-1.53,34.841-3.059,52.262-4.589c0.799-0.07,1.381-0.412,1.778-0.883c0.03-0.03,0.056-0.063,0.085-0.094
						c0.015-0.02,0.032-0.038,0.046-0.058c0.406-0.471,0.647-1.103,0.577-1.902c-1.517-17.269-3.036-34.538-4.553-51.806
						C363.826,460.995,362.47,459.866,360.996,459.995z M362.827,512.04c-15.606,1.37-31.212,2.74-46.818,4.11
						c-1.36-15.47-2.72-30.94-4.08-46.41c15.606-1.37,31.212-2.741,46.818-4.111C360.108,481.1,361.468,496.57,362.827,512.04z"/>
					<path style="fill:#879195;" d="M369.415,555.783c-17.42,1.529-34.841,3.059-52.262,4.589c-1.471,0.129-2.613,1.475-2.485,2.937
						c1.519,17.269,3.036,34.537,4.554,51.806c0.129,1.459,1.485,2.589,2.959,2.459c17.421-1.53,34.841-3.059,52.261-4.589
						c0.799-0.07,1.381-0.412,1.778-0.883c0.03-0.03,0.057-0.063,0.085-0.094c0.015-0.02,0.032-0.038,0.046-0.058
						c0.405-0.471,0.647-1.103,0.577-1.903c-1.518-17.269-3.035-34.538-4.554-51.806
						C372.246,556.783,370.89,555.654,369.415,555.783z M371.247,607.828c-15.606,1.37-31.212,2.74-46.818,4.111
						c-1.36-15.47-2.72-30.939-4.079-46.41c15.606-1.37,31.212-2.74,46.818-4.111C368.528,576.888,369.887,592.358,371.247,607.828z
						"/>
				</g>
				<polygon style="fill:#3ABABA;" points="319.639,386.852 331.301,381.828 339.022,393.149 392.806,347.097 399.595,347.834 
					337.631,407.937 				"/>
				<polygon style="fill:#3ABABA;" points="323.917,485.45 335.579,480.427 343.3,491.748 397.084,445.695 403.874,446.433 
					341.91,506.535 				"/>
				<polygon style="fill:#3ABABA;" points="330.797,576.208 342.461,571.183 350.18,582.505 403.965,536.452 410.754,537.189 
					348.79,597.292 				"/>
				
					<rect x="405.62" y="565.738" transform="matrix(0.9962 -0.0875 0.0875 0.9962 -48.7099 45.789)" style="opacity:0.32;fill:#879195;" width="185.078" height="26.003"/>
				
					<rect x="396.702" y="464.284" transform="matrix(0.9962 -0.0875 0.0875 0.9962 -39.8704 44.6201)" style="opacity:0.32;fill:#879195;" width="185.077" height="26.003"/>
				
					<rect x="387.784" y="362.829" transform="matrix(0.9962 -0.0875 0.0875 0.9962 -31.031 43.4513)" style="opacity:0.32;fill:#879195;" width="185.077" height="26.003"/>
			</g>
		</g>
	</g>
	<g>
		<polygon style="fill:#145566;" points="155.192,290.142 148.639,342.387 233.437,399.193 228.788,414.348 120.507,372.93 
			110.862,337.607 135.514,260.866 		"/>
		<polygon style="fill:#AA6755;" points="229.783,411.104 236.489,416.885 253.367,417.971 253.207,408.616 241.142,404.251 
			239.903,399.366 233.437,399.193 		"/>
	</g>
	<g>
		<g>
			<g>
				<g>
					<polygon style="fill:#14263A;" points="966.193,672.912 967.028,681.124 951.44,691.005 942.393,683.628 949.77,674.582 
						965.359,664.701 					"/>
					<polygon style="fill:#145566;" points="966.797,422.415 969.331,447.353 947.064,558.8 966.784,670.179 950.826,675.092 
						899.231,542.665 896.401,502.181 903.389,418.316 					"/>
				</g>
				<g>
					<polygon style="fill:#145566;" points="845.862,430.905 845.351,536.261 866.114,671.958 881.379,671.856 890.179,546.458 
						910.227,420.986 					"/>
					<polygon style="fill:#14263A;" points="881.334,678.293 864.882,686.657 856.573,678.459 864.771,670.15 881.279,670.039 					
						"/>
				</g>
			</g>
			<g>
				<path style="fill:#D1E7F5;" d="M832.998,415.443c11.012-34.113,12.185-69.933,15.388-105.468
					c0.95-10.485,1.958-21.201,6.323-30.781c5.011-11.001,13.297-16.807,22.949-19.979c12.285-4.037,26.783-3.805,39.557-4.583
					c12.12-0.382,22.842,45.18,35.205,67.266c7.577,13.535,15.384,25.507,20.494,40.271c4.905,14.17,9.615,28.589,12.468,43.333
					c4.309,22.26,15.328,37.803,4.804,45.375c-0.965,0.319-1.893,0.635-2.775,0.951c-17.263,6.184-35.125,10.761-53.314,13.162
					c-16.135,2.129-32.522,2.517-48.724,0.92c-22.178-2.186-43.665-5.319-63.216-16.885
					C825.772,437.831,829.385,426.637,832.998,415.443z"/>
			</g>
		</g>
		<polygon style="fill:#D1E7F5;" points="756.956,346.434 832.956,323.725 858.755,272.291 872.976,298.597 856.573,346.434 
			773.391,362.898 		"/>
	</g>
	<g>
		
			<rect x="762.179" y="194.839" transform="matrix(-0.7077 0.7065 -0.7065 -0.7077 1604.0729 8.1422)" style="fill:#EBB044;" width="76.346" height="282.07"/>
		<polygon style="fill:#EDEEEF;" points="727.729,209.092 652.549,187.812 673.697,263.029 		"/>
		<polygon style="fill:#145566;" points="680.756,195.796 652.549,187.812 660.483,216.033 		"/>
		<path style="fill:#FFFFFF;" d="M907.06,482.433l40.115-40.045c3.843-3.836,3.849-10.062,0.012-13.905l-20.18-19.764
			l-54.032,53.937l20.18,19.764C896.992,486.264,903.217,486.269,907.06,482.433z"/>
		<polygon style="fill:#EDEDEF;" points="872.976,462.657 927.008,408.72 916.921,398.616 862.469,452.132 		"/>
	</g>
	<g>
		<path style="fill:#EAC1A4;" d="M923.145,220.721c-6.904-20.845-37.324-28.104-44.396-3.878c-2.125,7.28-3.404,15.003-1.959,22.448
			c1.445,7.445,5.995,14.589,12.938,17.64c0.04,0.017,0.079,0.032,0.119,0.049c-0.271,1.932-0.542,3.864-0.813,5.796
			c-0.058,0.415-0.107,0.873,0.126,1.221c0.266,0.396,0.794,0.5,1.266,0.571c2.306,0.344,4.613,0.688,6.919,1.032
			c1.143,0.171,2.334,0.338,3.435-0.015c2.41-0.771,3.412-3.659,3.517-6.187c0.025-0.604,0.019-1.216,0.01-1.827
			C917.957,252.896,927.658,234.347,923.145,220.721z"/>
		<g>
			<path style="fill:#1A3151;" d="M886.084,185.128c-5.57-0.828-10.313,4.573-15.453,7.409c-4.275,2.359-9.123,2.985-13.555,4.94
				c-4.431,1.956-8.787,6.037-8.88,11.147c-4.491-2.337-9.355-4.734-14.387-3.764c-5.032,0.97-9.703,6.977-7.698,11.929
				c1.795,4.435,7.58,5.479,9.505,9.844c3.045,6.905-5.187,17.628,0.43,22.208c1.35,1.101,3.188,1.367,4.515,2.5
				c1.648,1.408,2.177,3.826,2.911,5.975c3.326,9.743,13.148,16.108,22.849,14.806c6.032-2.826,10.842-8.665,12.997-15.349
				c2.598-8.056-1.713-10.869-2.44-18.432c-0.795-8.265,1.833-17.018,7.037-23.437c3.386-4.177,8.232-7.777,13.352-8.266
				c2.082-0.199,1.427,1.538,3.768-0.073c1.005-0.691,2.377-3.305,2.662-4.559C898.095,197.503,893.412,186.218,886.084,185.128z"/>
			<path style="fill:#1A3151;" d="M946.326,195.845c2.874,0.8,5.993,0.683,8.731,1.883c4.112,1.803,3.863,6.07,5.026,9.777
				c1.288,4.104,3.162,9.614,5.869,12.807c1.951,2.301,4.682,3.612,7.058,5.387c2.376,1.775,4.561,4.396,4.511,7.595
				c-0.048,3.032-2.086,5.754-2.384,8.781c-0.363,4.514,0.417,6.825-0.974,11.439c-0.718,2.38-1.522,4.902-3.308,6.525
				c-2.355,2.14-5.709,2.098-8.654,1.606c-2.945-0.492-5.989-1.309-8.894-0.332c-6.299,2.118-5.123,8.489-6.8,13.828
				c-2.552,8.125-11.973,12.867-19.18,9.978c-6.111-2.45-9.648-9.546-9.372-16.55c0.138-3.507,1.535-6.775,1.636-10.285
				c0.098-3.385-1.811-8.074,1.257-10.76c0.748-0.654,1.706-0.999,2.377-1.745c0.543-0.603,0.844-1.411,1.033-2.218
				c0.653-2.798,0.038-5.849-1.612-7.992c-1.186-1.54-2.884-2.664-3.611-4.522c-0.832-2.128-0.174-4.617-0.033-6.969
				c0.341-5.685-2.769-11.261-7.505-13.456c-3.121-1.447-5.933-2.3-8.661-4.501c-0.415-0.335-6.622-5.82-6.782-4.635
				c0.279-2.063,1.483-3.868,2.703-5.523c2.006-2.721,4.233-5.372,7.059-7.002c9.135-5.27,9.576,6.978,16.91,5.367
				c1.769-0.389,3.101-2.01,4.693-2.978c3.008-1.828,6.702-1.175,9.777,0.195C940.271,192.914,943.089,194.944,946.326,195.845z"/>
		</g>
	</g>
	<polygon style="fill:#EAC1A4;" points="754.519,357.132 763.522,355.207 774.81,363.853 766.283,373.801 757.753,366.83 	"/>
	<g>
		<polygon style="fill:#EAC1A4;" points="853.687,385.97 847.64,392.436 830.975,395.325 830.132,386.007 841.659,380.374 
			842.367,375.384 848.778,374.519 		"/>
		<polygon style="fill:#D1E7F5;" points="838.044,374.174 914.044,351.465 939.844,300.031 954.064,326.336 937.661,374.174 
			854.479,390.637 		"/>
	</g>
	<g>
		<polygon style="fill:#1A3151;" points="334.48,244.91 281.905,249.923 282.959,260.977 302.369,259.127 307.225,310.048 
			320.978,308.737 316.122,257.815 335.534,255.964 		"/>
		<path style="fill:#1A3151;" d="M394.405,253.425c-2.89-4.524-6.722-7.864-11.494-10.015c-4.773-2.15-10.236-2.932-16.386-2.346
			c-6.151,0.586-11.381,2.389-15.691,5.404c-4.31,3.018-7.469,7.024-9.482,12.015c-2.013,4.995-2.711,10.712-2.097,17.153
			c0.614,6.441,2.383,11.954,5.308,16.534c2.926,4.582,6.789,7.947,11.59,10.094c4.803,2.149,10.278,2.929,16.429,2.343
			c6.15-0.586,11.368-2.386,15.647-5.401c4.28-3.013,7.41-7.044,9.386-12.094c1.978-5.047,2.661-10.793,2.047-17.235
			C399.049,263.435,397.296,257.952,394.405,253.425z M383.278,287.337c-2.582,3.935-6.484,6.152-11.707,6.65
			c-5.223,0.497-9.473-0.927-12.748-4.274c-3.276-3.348-5.244-8.473-5.902-15.38c-0.653-6.846,0.314-12.209,2.902-16.087
			c2.587-3.877,6.492-6.064,11.715-6.562c5.223-0.498,9.471,0.911,12.745,4.23c3.273,3.319,5.236,8.402,5.889,15.248
			C386.824,278.011,385.859,283.401,383.278,287.337z"/>
		<path style="fill:#1A3151;" d="M485.774,244.889c-3.025-4.396-7.09-7.581-12.198-9.554c-5.107-1.972-11.054-2.634-17.844-1.987
			l-23.938,2.282l5.91,61.976l23.938-2.282c6.847-0.653,12.591-2.445,17.23-5.377c4.639-2.93,8.013-6.838,10.125-11.725
			c2.11-4.885,2.855-10.578,2.236-17.078C490.618,254.703,488.798,249.286,485.774,244.889z M459.726,284.439l-9.489,0.905
			l-3.818-40.04l9.489-0.906c13.23-1.261,20.479,4.752,21.746,18.041C478.932,275.844,472.956,283.178,459.726,284.439z"/>
		<path style="fill:#1A3151;" d="M560.433,254.546c-0.615-6.441-2.368-11.924-5.258-16.451c-2.891-4.524-6.723-7.863-11.495-10.015
			c-4.773-2.149-10.236-2.933-16.386-2.346c-6.151,0.586-11.381,2.389-15.691,5.404c-4.31,3.018-7.469,7.023-9.482,12.015
			c-2.013,4.994-2.711,10.712-2.097,17.153c0.614,6.442,2.383,11.953,5.308,16.533c2.926,4.582,6.788,7.947,11.59,10.094
			c4.803,2.149,10.278,2.929,16.43,2.343c6.15-0.587,11.367-2.386,15.647-5.402c4.28-3.012,7.409-7.043,9.387-12.093
			C560.364,266.733,561.047,260.988,560.433,254.546z M544.047,272.007c-2.581,3.936-6.484,6.153-11.707,6.65
			c-5.223,0.498-9.473-0.926-12.748-4.273c-3.276-3.348-5.244-8.473-5.902-15.38c-0.653-6.846,0.314-12.209,2.902-16.087
			c2.587-3.878,6.492-6.065,11.715-6.562c5.223-0.498,9.471,0.912,12.745,4.23c3.273,3.319,5.236,8.402,5.889,15.249
			C547.593,262.681,546.628,268.071,544.047,272.007z"/>
	</g>
</g>
</svg>
